<?xml version="1.0" encoding="utf-8"?>
<!-- Generator: Adobe Illustrator 16.0.0, SVG Export Plug-In . SVG Version: 6.00 Build 0)  -->
<!DOCTYPE svg PUBLIC "-//W3C//DTD SVG 1.1//EN" "http://www.w3.org/Graphics/SVG/1.1/DTD/svg11.dtd">
<svg version="1.1" id="Layer_1" xmlns="http://www.w3.org/2000/svg" xmlns:xlink="http://www.w3.org/1999/xlink" x="0px" y="0px"
	 width="313.97px" height="119px" viewBox="0 0 313.97 119" enable-background="new 0 0 313.97 119" xml:space="preserve">
<rect x="-108" y="147" fill="#112F41" width="67" height="76"/>
<rect x="-108" y="238" fill="#068587" width="67" height="76"/>
<rect x="-109" y="327" width="67" height="76"/>
<rect x="-108" y="417" fill="#FFFFFF" width="67" height="76"/>
<g>
	<path fill="#068587" d="M111.83,266.34c0,1.11-0.233,2.093-0.698,2.948c-0.465,0.855-1.095,1.575-1.89,2.16
		c-0.795,0.585-1.733,1.028-2.813,1.328c-1.08,0.3-2.221,0.45-3.42,0.45c-0.51,0-1.073-0.046-1.688-0.137
		c-0.615-0.091-1.26-0.206-1.935-0.344c-0.675-0.137-1.343-0.29-2.003-0.458c-0.66-0.167-1.275-0.343-1.845-0.526l0.675-2.225
		c1.05,0.24,2.138,0.48,3.263,0.72c1.125,0.241,2.062,0.36,2.813,0.36h1.44c0.75,0,1.462-0.097,2.138-0.292
		c0.675-0.194,1.274-0.479,1.8-0.853c0.524-0.374,0.938-0.846,1.237-1.415s0.45-1.228,0.45-1.977c0-0.358-0.075-0.726-0.225-1.1
		c-0.15-0.374-0.315-0.681-0.495-0.921c-0.27-0.359-0.6-0.65-0.99-0.875c-0.39-0.225-0.818-0.419-1.283-0.583
		c-0.465-0.165-0.938-0.285-1.417-0.359c-0.48-0.075-0.93-0.127-1.35-0.158c-0.84-0.029-1.681-0.12-2.52-0.269
		c-0.84-0.149-1.65-0.434-2.43-0.854c-0.84-0.539-1.56-1.272-2.16-2.2c-0.6-0.928-0.9-1.946-0.9-3.054c0-1.617,0.6-2.994,1.8-4.132
		c1.2-1.138,2.79-1.916,4.77-2.335c0.33-0.06,0.795-0.127,1.395-0.202c0.6-0.075,1.17-0.113,1.71-0.113
		c0.36,0,0.788,0.045,1.283,0.135s1.02,0.203,1.575,0.337c0.555,0.135,1.103,0.292,1.642,0.473c0.54,0.18,1.02,0.345,1.44,0.495
		l-0.36,1.17c-0.061,0.12-0.105,0.248-0.135,0.382c-0.03,0.135-0.075,0.368-0.135,0.698c-1.26-0.42-2.355-0.72-3.285-0.9
		c-0.93-0.18-1.875-0.27-2.835-0.27c-0.72,0-1.456,0.083-2.205,0.248c-0.75,0.166-1.44,0.428-2.07,0.788
		c-0.63,0.36-1.147,0.81-1.552,1.35c-0.405,0.54-0.607,1.186-0.607,1.935c0,0.45,0.165,0.967,0.495,1.552s0.75,1.058,1.26,1.417
		c0.51,0.331,1.035,0.54,1.575,0.63c0.54,0.09,1.095,0.165,1.665,0.225l-0.045-0.045h0.315c0.03,0,0.052,0.008,0.068,0.022
		c0.015,0.016,0.037,0.022,0.067,0.022h0.045h-0.045h0.045c0.87,0.061,1.785,0.203,2.745,0.428c0.959,0.225,1.875,0.607,2.745,1.147
		c0.839,0.57,1.53,1.335,2.07,2.295C111.56,264.42,111.83,265.38,111.83,266.34z"/>
	<path fill="#068587" d="M134.014,249.33v2.52h-8.91V273h-2.565v-21.15h-9v-2.52H134.014z"/>
	<path fill="#068587" d="M140.944,248.565c1.62,3.78,3.277,7.725,4.972,11.835c1.695,4.11,3.353,8.145,4.973,12.105l-2.295,0.63
		l-3.78-8.73h-7.605c-0.601,1.44-1.223,2.918-1.868,4.433c-0.646,1.515-1.268,2.978-1.868,4.388l-2.43-0.63L140.944,248.565z
		 M143.824,262.155c-0.48-1.29-0.953-2.504-1.417-3.645c-0.465-1.14-0.953-2.385-1.462-3.735c-0.18,0.45-0.36,0.916-0.54,1.395
		c-0.18,0.48-0.375,1.005-0.585,1.575c-0.21,0.57-0.45,1.215-0.72,1.935c-0.27,0.72-0.57,1.545-0.9,2.475H143.824z"/>
	<path fill="#068587" d="M172.445,269.715c-1.35,1.11-2.745,1.973-4.185,2.588c-1.44,0.615-2.91,0.922-4.41,0.922
		c-1.681,0-3.255-0.315-4.725-0.945c-1.47-0.63-2.755-1.492-3.853-2.587c-1.099-1.095-1.969-2.37-2.61-3.825
		c-0.642-1.455-0.962-3.022-0.962-4.703c0-1.649,0.32-3.218,0.962-4.703c0.641-1.485,1.511-2.774,2.61-3.87
		c1.098-1.095,2.383-1.964,3.853-2.61c1.47-0.645,3.044-0.967,4.725-0.967c1.2,0,2.475,0.263,3.825,0.788
		c1.35,0.525,2.745,1.268,4.185,2.227l-2.07,1.575c-1.95-1.32-3.93-1.98-5.94-1.98c-1.32,0-2.558,0.248-3.712,0.743
		c-1.155,0.495-2.168,1.178-3.038,2.047c-0.871,0.871-1.56,1.883-2.07,3.038c-0.511,1.155-0.765,2.393-0.765,3.712
		c0,1.32,0.254,2.55,0.765,3.69c0.51,1.141,1.199,2.138,2.07,2.993c0.87,0.855,1.882,1.53,3.038,2.025
		c1.154,0.495,2.392,0.743,3.712,0.743c1.14,0,2.295-0.24,3.465-0.72c1.17-0.479,2.28-1.155,3.33-2.025L172.445,269.715z"/>
	<path fill="#068587" d="M193.234,271.65l-2.025,1.665l-12.06-11.07l-0.09,0.09V273h-2.475v-23.67h2.475v9.45
		c1.83-1.62,3.682-3.254,5.557-4.905c1.875-1.649,3.713-3.285,5.513-4.905l1.845,1.845l-10.89,9.675L193.234,271.65z"/>
	<path d="M221.81,249.24l8.235,17.775c0.3-0.72,0.653-1.53,1.058-2.43s0.825-1.83,1.26-2.79c0.435-0.959,0.885-1.935,1.35-2.925
		c0.465-0.99,0.907-1.95,1.328-2.88c0.99-2.16,2.04-4.38,3.15-6.66l2.61,0.54l-10.755,23.58l-10.665-23.49L221.81,249.24z"/>
	<path d="M242.69,273v-23.67h13.95v2.52h-11.385v6.03h7.65v2.52h-7.65v9.99h12.15V273H242.69z"/>
	<path d="M262.94,264.18V273h-2.475v-23.67h6.885c1.05,0,2.025,0.21,2.925,0.629s1.672,0.974,2.317,1.664
		c0.645,0.689,1.155,1.476,1.53,2.359c0.375,0.885,0.563,1.806,0.563,2.765c0,1.469-0.337,2.795-1.012,3.979
		c-0.675,1.184-1.688,2.061-3.038,2.63l2.115,2.704c0.36,0.451,0.772,0.984,1.237,1.6c0.465,0.616,0.945,1.248,1.44,1.893
		c0.495,0.646,0.968,1.27,1.417,1.87c0.45,0.601,0.84,1.127,1.17,1.577h-3.24l-6.84-8.82H262.94z M262.94,251.85v9.72h4.41
		c0.66,0,1.29-0.126,1.89-0.38c0.6-0.254,1.117-0.597,1.553-1.03c0.435-0.433,0.78-0.941,1.035-1.523
		c0.255-0.583,0.383-1.203,0.383-1.859c0-0.687-0.128-1.329-0.383-1.926c-0.255-0.597-0.6-1.12-1.035-1.567
		c-0.436-0.448-0.953-0.799-1.553-1.053c-0.601-0.254-1.23-0.381-1.89-0.381H262.94z"/>
	<path d="M295.339,251.85h-11.07v6.12H293v2.52h-8.73V273h-2.565v-23.67h13.635V251.85z"/>
	<path d="M313.97,270.39V273h-15.75v-23.67h2.565v21.06H313.97z"/>
	<path d="M324.927,249.105c1.653,0,3.216,0.315,4.688,0.945c1.472,0.63,2.75,1.5,3.832,2.61s1.938,2.4,2.57,3.87
		c0.631,1.47,0.947,3.031,0.947,4.68c0,1.681-0.316,3.248-0.947,4.703c-0.631,1.456-1.488,2.73-2.57,3.825
		c-1.082,1.096-2.36,1.958-3.832,2.588c-1.472,0.63-3.036,0.945-4.688,0.945c-1.683,0-3.254-0.315-4.711-0.945
		c-1.458-0.63-2.742-1.492-3.855-2.588c-1.112-1.095-1.983-2.369-2.615-3.825c-0.631-1.455-0.946-3.022-0.946-4.703
		c0-1.649,0.315-3.21,0.946-4.68c0.631-1.469,1.502-2.76,2.615-3.87c1.113-1.11,2.397-1.98,3.855-2.61
		C321.673,249.42,323.244,249.105,324.927,249.105z M334.399,261.21c0-1.32-0.248-2.557-0.743-3.712
		c-0.495-1.155-1.178-2.16-2.047-3.015c-0.871-0.855-1.883-1.53-3.038-2.025c-1.155-0.495-2.378-0.743-3.667-0.743
		c-1.32,0-2.565,0.248-3.735,0.743c-1.17,0.495-2.183,1.17-3.038,2.025s-1.53,1.86-2.025,3.015
		c-0.495,1.155-0.743,2.393-0.743,3.712c0,1.32,0.248,2.55,0.743,3.69c0.495,1.141,1.17,2.138,2.025,2.993s1.867,1.53,3.038,2.025
		c1.17,0.495,2.415,0.743,3.735,0.743c1.29,0,2.512-0.248,3.667-0.743c1.154-0.495,2.167-1.17,3.038-2.025
		c0.87-0.855,1.552-1.852,2.047-2.993C334.152,263.76,334.399,262.53,334.399,261.21z"/>
	<path d="M352.624,249.69l1.89,4.59c0.27-0.659,0.524-1.267,0.765-1.822c0.24-0.555,0.45-1.042,0.63-1.462
		c0.209-0.479,0.39-0.915,0.54-1.305l2.52,0.675l-2.97,7.155c0.24,0.601,0.487,1.147,0.743,1.643
		c0.254,0.495,0.563,1.073,0.922,1.732c0.36,0.66,0.78,1.462,1.26,2.408c0.479,0.945,1.049,2.153,1.71,3.622
		c0.299-0.75,0.652-1.582,1.057-2.497c0.405-0.915,0.833-1.86,1.283-2.835c0.45-0.974,0.907-1.958,1.373-2.947
		c0.465-0.99,0.907-1.935,1.328-2.835c0.99-2.13,2.025-4.305,3.105-6.525l2.565,0.63l-10.71,23.445l-6.075-12.6
		c-0.48,1.141-0.975,2.221-1.485,3.24c-0.511,1.02-1.028,2.041-1.553,3.06c-0.525,1.02-1.035,2.047-1.53,3.083
		s-0.983,2.123-1.462,3.262l-10.755-23.49l2.52-0.63l8.235,17.775c0.24-0.54,0.479-1.027,0.72-1.462
		c0.24-0.435,0.532-0.968,0.877-1.598c0.345-0.63,0.757-1.447,1.238-2.453c0.479-1.004,1.08-2.362,1.8-4.072l-0.135-0.315
		l-0.135-0.405v0.045l-2.745-6.435L352.624,249.69z"/>
	<g>
		<path fill="#112F41" d="M380.398,255.731v1.044h-6.3v-9.468h1.026v8.424H380.398z"/>
		<path fill="#112F41" d="M387.58,247.307v9.468h-1.026v-9.468H387.58z"/>
		<path fill="#112F41" d="M402.178,247.307v1.008h-3.564v8.46h-1.026v-8.46h-3.6v-1.008H402.178z"/>
		<path fill="#112F41" d="M408.244,256.775v-9.468h5.58v1.008h-4.554v2.412h3.06v1.008h-3.06v3.996h4.86v1.044H408.244z"/>
	</g>
	<linearGradient id="SVGID_1_" gradientUnits="userSpaceOnUse" x1="117.0488" y1="190.8496" x2="337.0488" y2="301.8496">
		<stop  offset="0" style="stop-color:#112F41"/>
		<stop  offset="1" style="stop-color:#000000"/>
	</linearGradient>
	<path fill="url(#SVGID_1_)" d="M159.288,246c5.85-17.434,22.308-30,41.712-30s35.862,12.566,41.712,30h19.707
		c-6.368-28.052-31.439-49-61.419-49c-29.98,0-55.051,20.948-61.419,49H159.288z"/>
	<path fill="#068587" d="M242.374,275c-6.134,16.915-22.341,29-41.374,29s-35.24-12.085-41.374-29h-19.815
		c6.731,27.55,31.565,48,61.188,48s54.457-20.45,61.188-48H242.374z"/>
</g>
<g>
	<path fill="#068587" d="M27.621,65.736c0,1.005-0.211,1.894-0.631,2.667c-0.421,0.774-0.991,1.425-1.71,1.954
		c-0.719,0.53-1.568,0.931-2.544,1.201c-0.977,0.271-2.009,0.407-3.095,0.407c-0.461,0-0.971-0.042-1.527-0.124
		c-0.557-0.083-1.14-0.187-1.75-0.311c-0.611-0.124-1.215-0.262-1.813-0.414c-0.597-0.151-1.154-0.311-1.669-0.477l0.611-2.013
		c0.95,0.217,1.934,0.435,2.952,0.651c1.018,0.218,1.866,0.326,2.545,0.326h1.303c0.678,0,1.323-0.088,1.934-0.265
		c0.61-0.176,1.153-0.433,1.628-0.771c0.474-0.338,0.848-0.765,1.119-1.28c0.271-0.515,0.408-1.111,0.408-1.789
		c0-0.324-0.068-0.656-0.204-0.995s-0.285-0.616-0.448-0.833c-0.244-0.325-0.543-0.588-0.896-0.792
		c-0.353-0.203-0.74-0.379-1.161-0.528c-0.421-0.149-0.849-0.258-1.282-0.325c-0.435-0.067-0.842-0.115-1.221-0.143
		c-0.76-0.026-1.521-0.108-2.28-0.244c-0.76-0.135-1.493-0.393-2.198-0.772c-0.761-0.487-1.412-1.151-1.955-1.99
		c-0.543-0.84-0.814-1.761-0.814-2.763c0-1.463,0.542-2.709,1.628-3.739c1.085-1.029,2.524-1.733,4.316-2.112
		c0.299-0.054,0.719-0.115,1.262-0.183s1.059-0.102,1.547-0.102c0.326,0,0.713,0.041,1.161,0.123
		c0.448,0.081,0.922,0.183,1.425,0.305c0.502,0.123,0.998,0.265,1.486,0.428c0.488,0.163,0.922,0.312,1.303,0.448l-0.326,1.059
		c-0.055,0.109-0.096,0.224-0.122,0.346c-0.027,0.123-0.068,0.333-0.122,0.631c-1.14-0.38-2.131-0.651-2.972-0.814
		c-0.841-0.163-1.697-0.244-2.565-0.244c-0.651,0-1.317,0.075-1.995,0.224c-0.679,0.15-1.303,0.387-1.873,0.713
		c-0.57,0.326-1.038,0.733-1.404,1.221c-0.367,0.489-0.55,1.073-0.55,1.751c0,0.407,0.149,0.875,0.448,1.404s0.679,0.957,1.14,1.283
		c0.461,0.299,0.937,0.488,1.425,0.57c0.488,0.081,0.99,0.149,1.506,0.203L19.6,59.588h0.285c0.027,0,0.047,0.007,0.061,0.02
		c0.013,0.014,0.034,0.021,0.061,0.021h0.041h-0.041h0.041c0.787,0.055,1.615,0.183,2.484,0.387
		c0.868,0.204,1.696,0.549,2.483,1.038c0.76,0.516,1.384,1.208,1.873,2.076C27.376,64,27.621,64.868,27.621,65.736z"/>
	<path fill="#068587" d="M47.692,50.346v2.28H39.63v19.135H37.31V52.626h-8.143v-2.28H47.692z"/>
	<path fill="#068587" d="M53.962,49.654c1.466,3.42,2.965,6.99,4.499,10.708c1.534,3.719,3.033,7.369,4.499,10.952l-2.076,0.57
		l-3.42-7.898h-6.88c-0.543,1.303-1.107,2.64-1.69,4.01c-0.584,1.371-1.147,2.694-1.69,3.97l-2.198-0.57L53.962,49.654z
		 M56.567,61.95c-0.434-1.167-0.862-2.266-1.282-3.298c-0.421-1.031-0.862-2.158-1.323-3.379c-0.163,0.407-0.326,0.829-0.489,1.262
		c-0.163,0.435-0.339,0.91-0.529,1.425c-0.19,0.516-0.408,1.099-0.652,1.75s-0.516,1.398-0.814,2.239H56.567z"/>
	<path fill="#068587" d="M82.462,68.79c-1.222,1.005-2.484,1.785-3.787,2.341c-1.303,0.557-2.633,0.834-3.99,0.834
		c-1.521,0-2.945-0.285-4.275-0.855c-1.33-0.57-2.493-1.35-3.486-2.341c-0.995-0.991-1.781-2.144-2.361-3.46
		c-0.581-1.317-0.871-2.734-0.871-4.255c0-1.493,0.29-2.912,0.871-4.255c0.58-1.343,1.367-2.51,2.361-3.501
		c0.993-0.991,2.156-1.777,3.486-2.361c1.33-0.583,2.754-0.875,4.275-0.875c1.086,0,2.24,0.237,3.461,0.712s2.483,1.147,3.786,2.015
		l-1.873,1.425c-1.765-1.194-3.556-1.791-5.375-1.791c-1.194,0-2.314,0.224-3.358,0.672c-1.045,0.447-1.962,1.065-2.749,1.852
		c-0.788,0.788-1.412,1.704-1.873,2.749c-0.462,1.045-0.692,2.165-0.692,3.359s0.23,2.307,0.692,3.338
		c0.461,1.032,1.085,1.934,1.873,2.708c0.787,0.774,1.703,1.384,2.749,1.832c1.044,0.448,2.164,0.672,3.358,0.672
		c1.031,0,2.077-0.218,3.135-0.652c1.058-0.434,2.063-1.045,3.013-1.832L82.462,68.79z"/>
	<path fill="#068587" d="M101.272,70.541l-1.832,1.506L88.528,62.031l-0.081,0.082v9.649h-2.239V50.346h2.239v8.55
		c1.655-1.465,3.332-2.944,5.028-4.438c1.696-1.493,3.359-2.973,4.988-4.438l1.669,1.669l-9.853,8.753L101.272,70.541z"/>
	<path d="M127.126,50.265l7.451,16.082c0.271-0.652,0.591-1.385,0.957-2.199c0.366-0.814,0.746-1.655,1.14-2.524
		c0.393-0.868,0.801-1.751,1.222-2.646c0.42-0.896,0.821-1.764,1.201-2.605c0.896-1.955,1.845-3.963,2.85-6.026l2.361,0.489
		l-9.731,21.334l-9.649-21.253L127.126,50.265z"/>
	<path d="M146.018,71.762V50.346h12.621v2.28h-10.3v5.456h6.921v2.28h-6.921V69.4h10.992v2.361H146.018z"/>
	<path d="M164.338,63.782v7.979H162.1V50.346h6.229c0.95,0,1.833,0.19,2.647,0.569c0.814,0.38,1.513,0.881,2.096,1.505
		c0.584,0.624,1.045,1.335,1.384,2.135c0.339,0.8,0.509,1.634,0.509,2.501c0,1.33-0.305,2.529-0.916,3.6
		c-0.61,1.071-1.527,1.864-2.748,2.379l1.914,2.447c0.325,0.408,0.698,0.89,1.119,1.447c0.421,0.558,0.854,1.129,1.303,1.713
		c0.447,0.584,0.875,1.148,1.282,1.692c0.407,0.544,0.76,1.02,1.059,1.427h-2.931l-6.189-7.979H164.338z M164.338,52.626v8.794h3.99
		c0.597,0,1.167-0.115,1.71-0.344c0.542-0.229,1.011-0.54,1.405-0.932c0.393-0.392,0.705-0.852,0.936-1.378
		c0.23-0.527,0.346-1.088,0.346-1.682c0-0.622-0.116-1.202-0.346-1.743c-0.231-0.54-0.543-1.013-0.936-1.418
		c-0.394-0.405-0.862-0.723-1.405-0.953c-0.544-0.229-1.113-0.344-1.71-0.344H164.338z"/>
	<path d="M193.653,52.626h-10.016v5.537h7.899v2.28h-7.899v11.318h-2.32V50.346h12.336V52.626z"/>
	<path d="M210.509,69.4v2.361h-14.25V50.346h2.321V69.4H210.509z"/>
	<path d="M220.422,50.143c1.496,0,2.91,0.285,4.242,0.855c1.333,0.57,2.488,1.357,3.467,2.362c0.979,1.004,1.754,2.171,2.326,3.501
		c0.57,1.33,0.857,2.742,0.857,4.234c0,1.521-0.287,2.938-0.857,4.255c-0.572,1.317-1.347,2.47-2.326,3.46
		c-0.979,0.991-2.135,1.771-3.467,2.341c-1.332,0.57-2.746,0.855-4.242,0.855c-1.522,0-2.944-0.285-4.263-0.855
		c-1.318-0.57-2.481-1.35-3.487-2.341c-1.006-0.991-1.795-2.144-2.365-3.46c-0.572-1.316-0.857-2.734-0.857-4.255
		c0-1.492,0.286-2.904,0.857-4.234c0.57-1.33,1.359-2.497,2.365-3.501c1.006-1.004,2.169-1.792,3.487-2.362
		C217.478,50.428,218.9,50.143,220.422,50.143z M228.993,61.095c0-1.194-0.224-2.313-0.672-3.359
		c-0.447-1.045-1.065-1.955-1.852-2.728c-0.788-0.773-1.703-1.384-2.748-1.832c-1.046-0.448-2.152-0.672-3.319-0.672
		c-1.194,0-2.32,0.224-3.378,0.672c-1.06,0.448-1.976,1.059-2.749,1.832s-1.384,1.683-1.832,2.728
		c-0.449,1.045-0.672,2.165-0.672,3.359s0.224,2.308,0.672,3.338c0.447,1.032,1.059,1.934,1.832,2.708
		c0.773,0.773,1.689,1.384,2.749,1.832c1.058,0.448,2.184,0.672,3.378,0.672c1.167,0,2.272-0.224,3.319-0.672
		c1.044-0.448,1.959-1.059,2.748-1.832c0.787-0.774,1.405-1.676,1.852-2.708C228.769,63.402,228.993,62.289,228.993,61.095z"/>
	<path d="M245.481,50.672l1.71,4.153c0.245-0.597,0.476-1.146,0.693-1.649c0.217-0.502,0.406-0.943,0.57-1.323
		c0.19-0.434,0.353-0.828,0.488-1.181l2.28,0.611l-2.687,6.474c0.217,0.543,0.441,1.038,0.672,1.486
		c0.23,0.448,0.509,0.971,0.834,1.567c0.325,0.598,0.705,1.323,1.14,2.179c0.435,0.855,0.95,1.948,1.548,3.277
		c0.271-0.678,0.59-1.431,0.956-2.259c0.367-0.828,0.753-1.683,1.161-2.565c0.406-0.881,0.82-1.771,1.241-2.667
		c0.42-0.896,0.821-1.75,1.201-2.565c0.896-1.927,1.833-3.895,2.81-5.903l2.32,0.57l-9.689,21.212l-5.498-11.4
		c-0.434,1.032-0.882,2.009-1.343,2.932c-0.462,0.923-0.931,1.846-1.405,2.769c-0.476,0.923-0.937,1.853-1.384,2.789
		c-0.449,0.937-0.89,1.92-1.324,2.951l-9.731-21.252l2.28-0.57l7.451,16.082c0.217-0.489,0.434-0.93,0.651-1.323
		c0.216-0.393,0.481-0.875,0.794-1.445c0.311-0.57,0.685-1.31,1.119-2.219c0.434-0.909,0.978-2.137,1.628-3.685l-0.122-0.285
		l-0.122-0.367v0.041l-2.485-5.822L245.481,50.672z"/>
	<g>
		<path fill="#112F41" d="M270.611,56.138v0.944h-5.701v-8.566h0.929v7.622H270.611z"/>
		<path fill="#112F41" d="M277.108,48.516v8.566h-0.928v-8.566H277.108z"/>
		<path fill="#112F41" d="M290.316,48.516v0.912h-3.225v7.654h-0.928v-7.654h-3.257v-0.912H290.316z"/>
		<path fill="#112F41" d="M295.805,57.082v-8.566h5.049v0.912h-4.121v2.183h2.769v0.912h-2.769v3.616h4.396v0.944H295.805z"/>
	</g>
	<linearGradient id="SVGID_2_" gradientUnits="userSpaceOnUse" x1="32.3999" y1="-2.8252" x2="231.3267" y2="97.5424">
		<stop  offset="0" style="stop-color:#112F41"/>
		<stop  offset="1" style="stop-color:#000000"/>
	</linearGradient>
	<path fill="url(#SVGID_2_)" d="M70.559,47c5.292-15,20.183-27.143,37.739-27.143c17.557,0,32.447,12.143,37.74,27.143h17.83
		c-5.762-25-28.445-44.333-55.57-44.333S58.49,22,52.728,47H70.559z"/>
	<path fill="#068587" d="M145.731,74c-5.549,15-20.213,26.238-37.434,26.238C91.078,100.238,76.414,89,70.865,74H52.937
		c6.09,24,28.559,43.429,55.361,43.429S157.569,98,163.659,74H145.731z"/>
</g>
</svg>
